# xmcd CD database file
#
# Track frame offsets:
#	150
#	24100
#	48365
#	70460
#	85285
#	110480
#	130492
#	144895
#	163477
#	187920
#	212347
#	332550
#
# Disc length: 4440 seconds
#
# Revision: 0
# Processed by: cddbd v1.5.1PL0 Copyright (c) Steve Scherf et al.
# Submitted via: CDex 1.51
#
DISCID=a411560c
DTITLE=various artist - Suzuki MANIA 鈴木雅之トリビュートアルバム
DYEAR=2004
DGENRE=J ポップ
TTITLE0=Tシャツに口紅
TTITLE1=Liberty
TTITLE2=Guilty
TTITLE3=Dry・Dry
TTITLE4=FIRST LOVE
TTITLE5=め組のひと
TTITLE6=別れの街
TTITLE7=ガラス越しに消えた夏
TTITLE8=恋人
TTITLE9=ハリケーン
TTITLE10=CCCD Data 1
TTITLE11=CCCD Data 2
EXTD=YEAR: 2004
EXTT0=
EXTT1=
EXTT2=
EXTT3=
EXTT4=
EXTT5=
EXTT6=
EXTT7=
EXTT8=
EXTT9=
EXTT10=
EXTT11=
PLAYORDER=
